#N canvas 2034 1071 892 597 12;
#X obj 201 58 inlet~;
#N canvas 1966 777 577 179 delay-writer 1;
#X obj 97 40 inlet~;
#X obj 98 80 delwrite~ delay0 10000;
#X connect 0 0 1 0;
#X restore 199 257 pd delay-writer;
#N canvas 2536 777 584 364 delay-reader 1;
#X text 227 11 Controls delay in fractions of 30ms;
#X obj 88 80 inlet~;
#X obj 89 208 outlet~;
#X text 253 153 set size here;
#X obj 88 152 delread4~ delay0 10000;
#X connect 1 0 4 0;
#X connect 4 0 2 0;
#X restore 397 253 pd delay-reader;
#X obj 428 50 inlet~;
#X obj 222 218 r~ a;
#X obj 667 325 *~;
#X obj 684 289 -~;
#X obj 403 125 -~, f 4;
#X obj 402 89 sig~ 1;
#X obj 399 157 *~;
#X obj 399 188 *~ 10;
#X obj 398 217 +~ 2;
#X text 494 49 variable delaysize input;
#X text 468 207 delay reader has fixed max delay size set internaly
;
#X text 254 59 delay input;
#X text 483 460 delay output;
#X floatatom 496 120 5 0 0 0 - - -, f 5;
#X obj 683 239 sig~ 1;
#X obj 441 291 lop~ 2000;
#X obj 397 373 outlet~;
#X obj 397 373 outlet~;
#X obj 666 364 s~ a;
#X obj 711 78 inlet~;
#X connect 0 0 1 0;
#X connect 2 0 18 0;
#X connect 3 0 7 1;
#X connect 4 0 1 0;
#X connect 5 0 21 0;
#X connect 6 0 5 1;
#X connect 7 0 9 0;
#X connect 7 0 9 1;
#X connect 8 0 7 0;
#X connect 9 0 10 0;
#X connect 10 0 11 0;
#X connect 11 0 2 0;
#X connect 17 0 6 0;
#X connect 18 0 5 0;
#X connect 18 0 19 0;
#X connect 22 0 6 1;
