#N canvas 1665 939 748 765 10;
#X obj 157 33 inlet~;
#X obj 27 256 outlet~;
#X obj 290 271 outlet~;
#X obj 819 438 biquad~ 0 0.479401 0.479401 0 1;
#X obj 819 474 biquad~ 0 0.876218 0.876218 0 1;
#X obj 820 509 biquad~ 0 0.976599 0.976599 0 1;
#X obj 817 538 biquad~ 0 0.9975 0.9975 0 1;
#X obj 193 70 rzero_rev~ 0;
#X obj 25 121 biquad~ 0 0.161758 0.161758 0 -1;
#X obj 23 155 biquad~ 0 0.733029 0.733029 0 -1;
#X obj 23 185 biquad~ 0 0.94535 0.94535 0 -1;
#X obj 24 217 biquad~ 0 0.990598 0.990598 0 -1;
#X obj 284 133 biquad~ 0 0.479401 0.479401 0 -1;
#X obj 288 169 biquad~ 0 0.876218 0.876218 0 -1;
#X obj 285 206 biquad~ 0 0.976599 0.976599 0 -1;
#X obj 287 233 biquad~ 0 0.9975 0.9975 0 -1;
#X connect 0 0 8 0;
#X connect 0 0 7 0;
#X connect 3 0 4 0;
#X connect 4 0 5 0;
#X connect 5 0 6 0;
#X connect 7 0 12 0;
#X connect 8 0 9 0;
#X connect 9 0 10 0;
#X connect 10 0 11 0;
#X connect 11 0 1 0;
#X connect 12 0 13 0;
#X connect 13 0 14 0;
#X connect 14 0 15 0;
#X connect 15 0 2 0;
