#N canvas 2207 900 799 751 12;
#X obj 166 117 inlet~, f 8;
#X obj 412 91 inlet~;
#X obj 167 231 hilbert~;
#X obj 166 304 *~;
#X obj 166 329 -~;
#X obj 168 412 outlet~;
#X obj 246 202 cos~;
#X obj 221 304 *~;
#X obj 309 201 cos~;
#X obj 525 105 phasor~;
#X obj 310 164 -~ 0.25;
#X obj 413 228 hilbert~;
#X obj 410 291 *~;
#X obj 465 291 *~;
#X obj 408 420 outlet~;
#X obj 525 78 inlet~;
#X text 160 97 audio in;
#X text 176 430 modulated out;
#X text 329 66 modulated audio In;
#X text 522 57 modulator frequency;
#X text 415 440 demod out;
#X obj 166 169 hip~ 5;
#X obj 408 382 hip~ 5;
#X obj 167 370 hip~ 5;
#X obj 409 342 +~;
#X obj 280 586 vu 15 120 empty empty -1 -8 0 10 -66577 -1 1 0;
#X obj 280 559 snapshot~;
#X obj 351 529 metro 100;
#X obj 352 506 bng 15 250 50 0 empty empty empty 17 7 0 10 -262144
-1 -1;
#X obj 343 483 loadbang;
#X text 201 329 up;
#X text 442 343 down;
#X obj 245 228 hip~ 5;
#X obj 308 227 hip~ 5;
#X obj 411 114 hip~ 5;
#X obj 245 251 *~ 1;
#X obj 308 250 *~ 1;
#X connect 0 0 21 0;
#X connect 1 0 34 0;
#X connect 2 0 3 0;
#X connect 2 1 7 0;
#X connect 3 0 4 0;
#X connect 4 0 23 0;
#X connect 6 0 32 0;
#X connect 7 0 4 1;
#X connect 8 0 33 0;
#X connect 9 0 6 0;
#X connect 9 0 10 0;
#X connect 10 0 8 0;
#X connect 11 0 12 0;
#X connect 11 1 13 0;
#X connect 12 0 24 0;
#X connect 13 0 24 1;
#X connect 15 0 9 0;
#X connect 21 0 2 0;
#X connect 22 0 14 0;
#X connect 23 0 5 0;
#X connect 24 0 22 0;
#X connect 26 0 25 0;
#X connect 27 0 26 0;
#X connect 28 0 27 0;
#X connect 29 0 27 0;
#X connect 32 0 35 0;
#X connect 33 0 36 0;
#X connect 34 0 11 0;
#X connect 35 0 3 1;
#X connect 35 0 12 1;
#X connect 36 0 7 1;
#X connect 36 0 13 1;
