#N canvas 1888 941 799 751 12;
#X obj 412 91 inlet~;
#X obj 166 304 *~;
#X obj 166 329 -~;
#X obj 168 412 outlet~;
#X obj 252 202 cos~;
#X obj 221 304 *~;
#X obj 320 204 cos~;
#X obj 522 113 phasor~;
#X obj 319 177 -~ 0.25;
#X obj 410 291 *~;
#X obj 465 291 *~;
#X obj 408 420 outlet~;
#X obj 525 78 inlet~;
#X text 176 430 modulated out;
#X text 329 66 modulated audio In;
#X text 522 57 modulator frequency;
#X text 415 440 demod out;
#X obj 280 586 vu 15 120 empty empty -1 -8 0 10 -66577 -1 1 0;
#X obj 280 559 snapshot~;
#X obj 351 529 metro 100;
#X obj 352 506 bng 15 250 50 0 empty empty empty 17 7 0 10 -262144
-1 -1;
#X obj 343 483 loadbang;
#X text 201 329 up;
#X text 442 343 down;
#X obj 600 281 hilbert~;
#X obj 414 229 hilberto~;
#X obj 409 342 +~;
#X obj 101 181 osc~;
#X obj 168 179 osc~;
#X obj 168 148 -~ 0.5;
#X obj 100 96 phasor~ 440;
#X obj 104 243 *~ 1;
#X obj 168 242 *~ 1;
#X obj 253 233 *~ 1;
#X obj 320 234 *~ 1;
#X obj 165 381 *~ 0.05;
#X connect 0 0 25 0;
#X connect 1 0 2 0;
#X connect 2 0 35 0;
#X connect 4 0 33 0;
#X connect 5 0 2 1;
#X connect 6 0 34 0;
#X connect 7 0 4 0;
#X connect 7 0 8 0;
#X connect 8 0 6 0;
#X connect 9 0 26 0;
#X connect 10 0 26 1;
#X connect 12 0 7 0;
#X connect 18 0 17 0;
#X connect 19 0 18 0;
#X connect 20 0 19 0;
#X connect 21 0 19 0;
#X connect 25 0 9 0;
#X connect 25 1 10 0;
#X connect 26 0 11 0;
#X connect 27 0 31 0;
#X connect 28 0 32 0;
#X connect 29 0 28 0;
#X connect 30 0 27 0;
#X connect 30 0 29 0;
#X connect 31 0 1 0;
#X connect 32 0 5 0;
#X connect 33 0 1 1;
#X connect 33 0 9 1;
#X connect 34 0 5 1;
#X connect 34 0 10 1;
#X connect 35 0 3 0;
