#N canvas 1824 837 1200 987 12;
#X obj 166 117 inlet~, f 8;
#X obj 404 372 inlet~;
#X obj 167 231 hilbert~;
#X obj 166 275 *~;
#X obj 166 300 -~;
#X obj 159 513 outlet~;
#X obj 251 230 cos~;
#X obj 221 275 *~;
#X obj 307 226 cos~;
#X obj 309 121 phasor~;
#X obj 307 195 -~ 0.25;
#X obj 408 463 hilbert~;
#X obj 407 507 *~;
#X obj 407 532 -~;
#X obj 496 241 cos~;
#X obj 462 507 *~;
#X obj 552 237 cos~;
#X obj 552 138 phasor~;
#X obj 553 204 -~ 0.25;
#X obj 552 110 *~ -1;
#X obj 397 740 outlet~;
#X obj 551 81 inlet~;
#X text 160 97 audio in;
#X text 164 533 modulated out;
#X text 405 350 modulated audio In;
#X text 548 60 modulator frequency;
#X text 634 171 ramp input for cos object;
#X text 640 211 45° shift;
#X text 404 760 demod out;
#X obj 166 169 hip~ 5;
#X obj 308 144 hip~ 5;
#X obj 552 163 hip~ 5;
#X obj 406 572 hip~ 5;
#X obj 167 341 hip~ 5;
#X connect 0 0 29 0;
#X connect 2 0 3 0;
#X connect 2 1 7 0;
#X connect 3 0 4 0;
#X connect 4 0 33 0;
#X connect 6 0 3 1;
#X connect 7 0 4 1;
#X connect 8 0 7 1;
#X connect 9 0 30 0;
#X connect 10 0 8 0;
#X connect 11 0 12 0;
#X connect 11 1 15 0;
#X connect 12 0 13 0;
#X connect 13 0 32 0;
#X connect 14 0 12 1;
#X connect 15 0 13 1;
#X connect 16 0 15 1;
#X connect 17 0 31 0;
#X connect 18 0 16 0;
#X connect 19 0 17 0;
#X connect 21 0 19 0;
#X connect 21 0 9 0;
#X connect 29 0 2 0;
#X connect 30 0 10 0;
#X connect 30 0 6 0;
#X connect 31 0 18 0;
#X connect 31 0 14 0;
#X connect 32 0 20 0;
#X connect 33 0 11 0;
