#N canvas 552 789 616 534 12;
#X obj 412 91 inlet~;
#X obj 166 304 *~;
#X obj 166 329 -~;
#X obj 168 412 outlet~;
#X obj 252 202 cos~;
#X obj 221 304 *~;
#X obj 320 204 cos~;
#X obj 522 113 phasor~;
#X obj 319 177 -~ 0.25;
#X obj 410 291 *~;
#X obj 465 291 *~;
#X obj 408 420 outlet~;
#X text 176 430 modulated out;
#X text 329 66 modulated audio In;
#X text 522 57 modulator frequency;
#X text 415 440 demod out;
#X text 201 329 up;
#X text 442 343 down;
#X obj 253 233 *~ 1;
#X obj 320 234 *~ 1;
#X obj 409 342 +~;
#X obj 112 92 inlet~;
#X obj 414 229 hilberto~;
#X obj 135 218 hilberto~;
#X obj 526 77 inlet;
#X connect 0 0 22 0;
#X connect 1 0 2 0;
#X connect 2 0 3 0;
#X connect 4 0 18 0;
#X connect 5 0 2 1;
#X connect 6 0 19 0;
#X connect 7 0 4 0;
#X connect 7 0 8 0;
#X connect 8 0 6 0;
#X connect 9 0 20 0;
#X connect 10 0 20 1;
#X connect 18 0 1 1;
#X connect 18 0 9 1;
#X connect 19 0 5 1;
#X connect 19 0 10 1;
#X connect 20 0 11 0;
#X connect 21 0 23 0;
#X connect 22 0 9 0;
#X connect 22 1 10 0;
#X connect 23 0 1 0;
#X connect 23 1 5 0;
#X connect 24 0 7 0;
